<?xml version="1.0" encoding="utf-8"?>
<svg viewBox="0 0 863 270" xmlns="http://www.w3.org/2000/svg">
  <path d="m89.31 198.9c4.156-3.9 10.786-9.226 19.89-15.99l35.88-25.35c16.898-11.956 29.183-24.308 36.855-37.05 7.666-12.736 11.505-27.166 11.505-43.29 0-23.4-8.385-42.12-25.155-56.16s-39.067-21.06-66.885-21.06c-29.902 0-53.887 8.324-71.955 24.96-18.074 16.642-27.885 39.652-29.445 69.03h64.74c1.298-16.38 4.546-28.336 9.75-35.88 5.198-7.538 12.736-11.31 22.62-11.31 18.196 0 27.3 11.054 27.3 33.15 0 9.104-2.34 17.099-7.02 23.985-4.68 6.892-12.614 14.369-23.79 22.425l-31.59 22.62c-21.584 15.6-37.184 31.395-46.8 47.385-9.622 15.99-14.43 34.777-14.43 56.355v8.58h193.83v-50.31h-113.49c1.298-4.156 4.028-8.19 8.19-12.09zm256.8151.1951c-5.07 13.912-13.327 20.865-24.765 20.865-11.444 0-19.695-6.953-24.765-20.865-5.07-13.906-7.605-35.685-7.605-65.325s2.535-51.413 7.605-65.325c5.07-13.906 13.321-20.865 24.765-20.865 11.438 0 19.695 6.959 24.765 20.865 5.07 13.912 7.605 35.685 7.605 65.325s-2.535 51.419-7.605 65.325zm-24.765-199.095c-33.802 0-59.347 11.767-76.635 35.295-17.294 23.534-25.935 56.355-25.935 98.475s8.641 74.947 25.935 98.475c17.288 23.534 42.833 35.295 76.635 35.295 33.796 0 59.341-11.761 76.635-35.295 17.288-23.528 25.935-56.355 25.935-98.475s-8.647-74.941-25.935-98.475c-17.294-23.528-42.839-35.295-76.635-35.295zm212.55 198.8999c4.156-3.9 10.786-9.226 19.89-15.99l35.88-25.35c16.898-11.956 29.183-24.308 36.855-37.05 7.666-12.736 11.505-27.166 11.505-43.29 0-23.4-8.385-42.12-25.155-56.16s-39.067-21.06-66.885-21.06c-29.902 0-53.887 8.324-71.955 24.96-18.074 16.642-27.885 39.652-29.445 69.03h64.74c1.298-16.38 4.546-28.336 9.75-35.88 5.198-7.538 12.736-11.31 22.62-11.31 18.196 0 27.3 11.054 27.3 33.15 0 9.104-2.34 17.099-7.02 23.985-4.68 6.892-12.614 14.369-23.79 22.425l-31.59 22.62c-21.584 15.6-37.184 31.395-46.8 47.385-9.622 15.99-14.43 34.777-14.43 56.355v8.58h193.83v-50.31h-113.49c1.298-4.156 4.028-8.19 8.19-12.09zm281.97-72.1499c23.918-11.176 35.88-29.64 35.88-55.38 0-22.096-8.58-39.518-25.74-52.26-17.16-12.736-39.914-19.11-68.25-19.11-27.824 0-49.859 6.435-66.105 19.305-16.252 12.87-25.807 30.877-28.665 54.015h63.57c2.34-18.196 12.09-27.3 29.25-27.3 8.58 0 15.338 2.73 20.28 8.19 4.936 5.46 7.41 12.614 7.41 21.45 0 20.024-14.82 30.03-44.46 30.03h-8.58v40.95h8.97c19.5 0 33.278 3.382 41.34 10.14 8.056 6.764 12.09 16.252 12.09 28.47 0 11.7-3.059 20.67-9.165 26.91-6.112 6.24-14.625 9.36-25.545 9.36-23.924 0-36.794-13.778-38.61-41.34h-63.96c2.34 27.3 12.346 48.689 30.03 64.155 17.678 15.472 42.766 23.205 75.27 23.205 30.42 0 54.728-7.02 72.93-21.06 18.196-14.04 27.3-33.278 27.3-57.72 0-29.64-15.082-50.31-45.24-62.01z" fill="none" transform="matrix(1, 0, 0, 1, 1, 1)" style="stroke: rgb(254, 254, 254); stroke-opacity: 0.5;"/>
</svg>