<?xml version="1.0" encoding="UTF-8" standalone="no"?><!DOCTYPE svg PUBLIC "-//W3C//DTD SVG 1.1//EN" "http://www.w3.org/Graphics/SVG/1.1/DTD/svg11.dtd"><svg width="100%" height="100%" viewBox="0 0 157 35" version="1.1" xmlns="http://www.w3.org/2000/svg" xmlns:xlink="http://www.w3.org/1999/xlink" xml:space="preserve" xmlns:serif="http://www.serif.com/" style="fill-rule:evenodd;clip-rule:evenodd;stroke-linejoin:round;stroke-miterlimit:1.41421;"><path d="M69.878,12.808l-2.041,0l0,8.635l-2.698,-8.635l-1.755,0l0,14.654l2.04,0l0,-7.689l2.413,7.689l2.041,0l0,-14.654Z" style="fill:#fff;fill-rule:nonzero;"/><path d="M74.444,24.167l1.843,0l0.373,3.295l1.996,0l-1.909,-14.654l-2.632,0l-1.997,14.654l1.975,0l0.351,-3.295Zm1.623,-1.912l-1.404,0l0.702,-6.788l0.702,6.788Z" style="fill:#fff;fill-rule:nonzero;"/><path d="M81.644,27.462l2.04,0l0,-12.742l1.997,0l0,-1.912l-5.946,0l0,1.912l1.909,0l0,12.742Z" style="fill:#fff;fill-rule:nonzero;"/><path d="M91.408,20.74l0,6.722l2.041,0l0,-14.654l-2.041,0l0,6.02l-1.667,0l0,-6.02l-2.04,0l0,14.654l2.04,0l0,-6.723l1.667,0Z" style="fill:#fff;fill-rule:nonzero;"/><path d="M98.011,24.167l1.843,0l0.373,3.295l1.996,0l-1.909,-14.654l-2.632,0l-1.997,14.654l1.975,0l0.351,-3.295Zm1.623,-1.912l-1.404,0l0.702,-6.788l0.702,6.788Z" style="fill:#fff;fill-rule:nonzero;"/><path d="M110.863,12.808l-2.041,0l0,8.635l-2.698,-8.635l-1.755,0l0,14.654l2.04,0l0,-7.689l2.413,7.689l2.041,0l0,-14.654Z" style="fill:#fff;fill-rule:nonzero;"/><path d="M117.781,12.808l0,14.654l2.04,0c1.623,0 2.567,-0.307 3.203,-1.054c0.57,-0.681 0.768,-1.494 0.768,-3.252c0,-2.109 -0.395,-2.944 -1.58,-3.405c1.01,-0.637 1.317,-1.406 1.317,-3.252c0,-1.34 -0.264,-2.175 -0.9,-2.812c-0.724,-0.725 -1.25,-0.879 -3.005,-0.879l-1.843,0Zm2.04,12.743l0,-4.746l0.197,0c1.426,0 1.734,0.44 1.734,2.373c0,1.934 -0.308,2.373 -1.734,2.373l-0.197,0Zm0,-6.657l0,-4.174l0.285,0c1.141,0 1.426,0.395 1.426,1.955c0,1.846 -0.241,2.219 -1.426,2.219l-0.285,0Z" style="fill:#fff;fill-rule:nonzero;"/><path d="M128.112,24.167l1.843,0l0.373,3.295l1.997,0l-1.909,-14.654l-2.633,0l-1.996,14.654l1.974,0l0.351,-3.295Zm1.624,-1.912l-1.404,0l0.702,-6.788l0.702,6.788Z" style="fill:#fff;fill-rule:nonzero;"/><path d="M134.47,12.808l0,14.654l2.041,0l0,-6.217c0.307,-0.022 0.373,-0.022 0.724,-0.088l1.184,6.305l2.194,0l-1.426,-7.008c0.834,-1.077 1.031,-1.736 1.031,-3.559c0,-1.384 -0.241,-2.373 -0.767,-3.054c-0.593,-0.769 -1.339,-1.033 -2.984,-1.033l-1.997,0Zm2.041,6.372l0,-4.46l0.285,0c1.141,0 1.426,0.373 1.426,1.955c0,1.34 -0.044,1.692 -0.198,1.977c-0.197,0.374 -0.57,0.528 -1.228,0.528l-0.285,0Z" style="fill:#fff;fill-rule:nonzero;"/><path d="M142.847,12.808l0,14.654l2.041,0l0,-6.217c0.307,-0.022 0.373,-0.022 0.724,-0.088l1.184,6.305l2.194,0l-1.426,-7.008c0.834,-1.077 1.031,-1.736 1.031,-3.559c0,-1.384 -0.241,-2.373 -0.767,-3.054c-0.593,-0.769 -1.339,-1.033 -2.984,-1.033l-1.997,0Zm2.041,6.372l0,-4.46l0.285,0c1.141,0 1.426,0.373 1.426,1.955c0,1.34 -0.044,1.692 -0.198,1.977c-0.197,0.374 -0.57,0.528 -1.228,0.528l-0.285,0Z" style="fill:#fff;fill-rule:nonzero;"/><path d="M152.678,21.377l0,6.085l2.04,0l0,-6.085l2.282,-8.569l-2.15,0l-1.119,5.405l-1.119,-5.405l-2.216,0l2.282,8.569Z" style="fill:#fff;fill-rule:nonzero;"/><path d="M37.57,6.594c1.496,-1.301 3.891,-2.552 5.887,-1.901c0.014,0.005 0.034,0.013 0.06,0.023c0.446,0.17 2.558,0.977 1.237,1.828c-0.908,0.586 -1.374,-0.035 -1.794,-0.596c-0.226,-0.301 -0.439,-0.585 -0.7,-0.655c-1.547,-0.45 -3.543,1.251 -4.591,2.451c-3.043,3.602 -4.689,8.405 -5.787,13.257c0.185,0.1 0.379,0.192 0.572,0.284c0.484,0.23 0.967,0.46 1.324,0.817c2.095,2.051 -0.3,1.201 -0.699,0.95c-0.083,-0.05 -0.238,-0.15 -0.419,-0.266c-0.362,-0.234 -0.828,-0.534 -1.028,-0.634c-0.507,2.545 -0.871,5.09 -1.214,7.483c-0.061,0.429 -0.122,0.853 -0.183,1.272c-0.049,0.35 -1.347,0.7 -1.446,0.3c-0.749,-3.702 -1.248,-7.454 -1.647,-11.206c-2.245,-0.851 -4.64,-1.501 -7.035,-1.751c-2.245,5.153 -5.338,10.606 -9.529,14.207c-3.692,3.152 -10.628,4.153 -10.578,-1.6c0.05,-6.204 7.734,-11.607 13.022,-13.007c1.896,-0.5 3.992,-0.651 6.137,-0.5c2.254,-5.241 3.908,-10.758 5.539,-16.197c0.066,-0.221 0.133,-0.442 0.199,-0.662c0.1,-0.301 1.397,-0.751 1.447,-0.301c0.797,4.617 1.252,9.313 1.71,14.031c0.172,1.774 0.344,3.552 0.535,5.33c0.748,0.3 1.497,0.6 2.195,0.95c0.599,-2.351 1.297,-4.652 2.245,-6.903c1.048,-2.552 2.445,-5.153 4.541,-7.004Zm-35.025,26.464c4.59,3.502 10.328,-4.303 12.323,-7.454c1.497,-2.351 2.794,-4.853 3.942,-7.454c-3.293,-0.2 -6.486,0.3 -9.18,1.801c-2.944,1.651 -5.638,4.202 -7.185,7.254c-0.848,1.701 -1.746,4.452 0.1,5.853Zm18.61,-17.409l-0.749,1.801c2.246,0.25 4.491,0.8 6.586,1.45c-0.43,-4.04 -0.86,-7.126 -1.363,-10.731c-0.138,-0.992 -0.282,-2.024 -0.433,-3.126c-1.074,3.532 -2.074,5.914 -3.382,9.03c-0.211,0.504 -0.43,1.026 -0.659,1.576Zm8.016,8.256c0.1,0.614 0.205,1.255 0.316,1.999c0.26,-1.48 0.521,-2.43 0.88,-3.739c0.054,-0.195 0.109,-0.399 0.168,-0.613c-0.47,-0.275 -0.94,-0.488 -1.434,-0.713c-0.136,-0.061 -0.273,-0.123 -0.412,-0.188c0.156,1.257 0.313,2.218 0.482,3.254Zm5.468,7.402c0,-0.951 1.696,-1.151 1.746,-0.15l0,0.05c-0.05,0.95 -1.746,1.1 -1.746,0.1Z" style="fill:#f26111;"/></svg>