<?xml version="1.0" encoding="UTF-8" standalone="no"?><!DOCTYPE svg PUBLIC "-//W3C//DTD SVG 1.1//EN" "http://www.w3.org/Graphics/SVG/1.1/DTD/svg11.dtd"><svg width="100%" height="100%" viewBox="0 0 180 41" version="1.1" xmlns="http://www.w3.org/2000/svg" xmlns:xlink="http://www.w3.org/1999/xlink" xml:space="preserve" xmlns:serif="http://www.serif.com/" style="fill-rule:evenodd;clip-rule:evenodd;stroke-linejoin:round;stroke-miterlimit:1.41421;"><path d="M80.115,14.72l-2.34,0l0,9.923l-3.093,-9.923l-2.013,0l0,16.841l2.34,0l0,-8.837l2.766,8.837l2.34,0l0,-16.841Z" style="fill:#001828;fill-rule:nonzero;"/><path d="M85.35,27.774l2.112,0l0.428,3.787l2.289,0l-2.188,-16.841l-3.019,0l-2.288,16.841l2.263,0l0.403,-3.787Zm1.861,-2.197l-1.61,0l0.805,-7.802l0.805,7.802Z" style="fill:#001828;fill-rule:nonzero;"/><path d="M93.605,31.561l2.339,0l0,-14.644l2.289,0l0,-2.197l-6.817,0l0,2.197l2.189,0l0,14.644Z" style="fill:#001828;fill-rule:nonzero;"/><path d="M104.799,23.835l0,7.726l2.34,0l0,-16.841l-2.34,0l0,6.918l-1.911,0l0,-6.918l-2.339,0l0,16.841l2.339,0l0,-7.726l1.911,0Z" style="fill:#001828;fill-rule:nonzero;"/><path d="M112.369,27.774l2.113,0l0.428,3.787l2.288,0l-2.188,-16.841l-3.018,0l-2.289,16.841l2.264,0l0.402,-3.787Zm1.861,-2.197l-1.609,0l0.805,-7.802l0.804,7.802Z" style="fill:#001828;fill-rule:nonzero;"/><path d="M127.104,14.72l-2.339,0l0,9.923l-3.094,-9.923l-2.012,0l0,16.841l2.339,0l0,-8.837l2.767,8.837l2.339,0l0,-16.841Z" style="fill:#001828;fill-rule:nonzero;"/><path d="M135.035,14.72l0,16.841l2.339,0c1.862,0 2.943,-0.354 3.673,-1.212c0.654,-0.783 0.88,-1.717 0.88,-3.737c0,-2.424 -0.453,-3.383 -1.811,-3.913c1.157,-0.733 1.509,-1.616 1.509,-3.737c0,-1.54 -0.302,-2.5 -1.031,-3.232c-0.83,-0.833 -1.434,-1.01 -3.446,-1.01l-2.113,0Zm2.339,14.644l0,-5.453l0.227,0c1.635,0 1.987,0.504 1.987,2.726c0,2.222 -0.352,2.727 -1.987,2.727l-0.227,0Zm0,-7.65l0,-4.797l0.327,0c1.308,0 1.635,0.454 1.635,2.247c0,2.121 -0.276,2.55 -1.635,2.55l-0.327,0Z" style="fill:#001828;fill-rule:nonzero;"/><path d="M146.88,27.774l2.113,0l0.428,3.787l2.289,0l-2.189,-16.841l-3.018,0l-2.289,16.841l2.264,0l0.402,-3.787Zm1.862,-2.197l-1.61,0l0.805,-7.802l0.805,7.802Z" style="fill:#001828;fill-rule:nonzero;"/><path d="M154.17,14.72l0,16.841l2.339,0l0,-7.145c0.352,-0.026 0.428,-0.026 0.83,-0.102l1.358,7.247l2.516,0l-1.635,-8.054c0.956,-1.238 1.182,-1.995 1.182,-4.091c0,-1.59 -0.277,-2.727 -0.88,-3.509c-0.679,-0.884 -1.535,-1.187 -3.421,-1.187l-2.289,0Zm2.339,7.322l0,-5.125l0.327,0c1.308,0 1.635,0.429 1.635,2.247c0,1.54 -0.05,1.944 -0.226,2.272c-0.227,0.429 -0.654,0.606 -1.409,0.606l-0.327,0Z" style="fill:#001828;fill-rule:nonzero;"/><path d="M163.774,14.72l0,16.841l2.339,0l0,-7.145c0.353,-0.026 0.428,-0.026 0.83,-0.102l1.359,7.247l2.515,0l-1.635,-8.054c0.956,-1.238 1.182,-1.995 1.182,-4.091c0,-1.59 -0.277,-2.727 -0.88,-3.509c-0.679,-0.884 -1.534,-1.187 -3.421,-1.187l-2.289,0Zm2.339,7.322l0,-5.125l0.327,0c1.308,0 1.635,0.429 1.635,2.247c0,1.54 -0.05,1.944 -0.226,2.272c-0.226,0.429 -0.654,0.606 -1.409,0.606l-0.327,0Z" style="fill:#001828;fill-rule:nonzero;"/><path d="M175.045,24.567l0,6.994l2.339,0l0,-6.994l2.616,-9.847l-2.465,0l-1.283,6.211l-1.283,-6.211l-2.54,0l2.616,9.847Z" style="fill:#001828;fill-rule:nonzero;"/><path d="M43.074,7.578c1.716,-1.495 4.461,-2.932 6.749,-2.185c0.016,0.006 0.039,0.015 0.069,0.027c0.511,0.195 2.933,1.122 1.419,2.1c-1.042,0.674 -1.576,-0.04 -2.057,-0.684c-0.259,-0.346 -0.503,-0.673 -0.803,-0.753c-1.774,-0.517 -4.062,1.437 -5.263,2.817c-3.489,4.14 -5.377,9.659 -6.636,15.236c0.213,0.115 0.435,0.22 0.657,0.326c0.554,0.264 1.109,0.528 1.517,0.938c2.403,2.358 -0.343,1.38 -0.801,1.093c-0.095,-0.058 -0.273,-0.173 -0.481,-0.307c-0.415,-0.268 -0.949,-0.613 -1.178,-0.728c-0.582,2.925 -0.999,5.85 -1.392,8.6c-0.07,0.493 -0.14,0.98 -0.209,1.461c-0.057,0.403 -1.545,0.805 -1.659,0.345c-0.858,-4.254 -1.43,-8.566 -1.888,-12.878c-2.574,-0.978 -5.319,-1.725 -8.065,-2.012c-2.574,5.921 -6.121,12.188 -10.926,16.327c-4.233,3.622 -12.184,4.772 -12.127,-1.839c0.058,-7.129 8.867,-13.339 14.93,-14.948c2.174,-0.575 4.576,-0.748 7.036,-0.575c2.584,-6.022 4.48,-12.363 6.35,-18.614c0.076,-0.254 0.152,-0.508 0.228,-0.761c0.115,-0.345 1.602,-0.863 1.659,-0.345c0.915,5.306 1.436,10.702 1.96,16.124c0.198,2.039 0.395,4.082 0.614,6.125c0.858,0.345 1.716,0.69 2.517,1.093c0.687,-2.702 1.487,-5.347 2.574,-7.934c1.201,-2.932 2.803,-5.922 5.206,-8.049Zm-40.156,30.413c5.262,4.025 11.841,-4.944 14.129,-8.566c1.716,-2.702 3.203,-5.577 4.519,-8.566c-3.776,-0.23 -7.437,0.345 -10.526,2.069c-3.375,1.898 -6.464,4.83 -8.237,8.337c-0.972,1.954 -2.002,5.117 0.115,6.726Zm21.336,-20.007l-0.858,2.07c2.574,0.287 5.148,0.92 7.551,1.667c-0.494,-4.643 -0.987,-8.19 -1.563,-12.332c-0.159,-1.141 -0.324,-2.327 -0.497,-3.593c-1.231,4.058 -2.377,6.796 -3.877,10.378c-0.242,0.578 -0.493,1.178 -0.756,1.81Zm9.191,9.489c0.114,0.705 0.234,1.442 0.362,2.297c0.298,-1.701 0.597,-2.792 1.009,-4.297c0.061,-0.224 0.125,-0.458 0.192,-0.705c-0.539,-0.316 -1.078,-0.561 -1.644,-0.819c-0.155,-0.07 -0.313,-0.142 -0.472,-0.216c0.179,1.445 0.359,2.549 0.553,3.74Zm6.269,8.506c0,-1.092 1.944,-1.322 2.002,-0.173l-0.001,0.058c-0.057,1.092 -2.002,1.265 -2.002,0.115Z" style="fill:#f26111;"/></svg>