<?xml version="1.0" encoding="UTF-8" standalone="no"?><!DOCTYPE svg PUBLIC "-//W3C//DTD SVG 1.1//EN" "http://www.w3.org/Graphics/SVG/1.1/DTD/svg11.dtd"><svg width="100%" height="100%" viewBox="0 0 12 3" version="1.1" xmlns="http://www.w3.org/2000/svg" xmlns:xlink="http://www.w3.org/1999/xlink" xml:space="preserve" xmlns:serif="http://www.serif.com/" style="fill-rule:evenodd;clip-rule:evenodd;stroke-linejoin:round;stroke-miterlimit:1.41421;"><path d="M1.647,0.128c-0.648,0 -1.08,0.378 -1.08,1.062c0,0.72 0.396,1.08 1.08,1.08c0.666,0 1.062,-0.378 1.062,-1.098c0,-0.684 -0.414,-1.044 -1.062,-1.044Zm4.342,0c-0.648,0 -1.08,0.378 -1.08,1.062c0,0.72 0.396,1.08 1.08,1.08c0.666,0 1.062,-0.378 1.062,-1.098c0,-0.684 -0.414,-1.044 -1.062,-1.044Zm4.342,0c-0.648,0 -1.08,0.378 -1.08,1.062c0,0.72 0.396,1.08 1.08,1.08c0.666,0 1.062,-0.378 1.062,-1.098c0,-0.684 -0.414,-1.044 -1.062,-1.044Z" style="fill-rule:nonzero;"/></svg>