<?xml version="1.0" encoding="UTF-8" standalone="no"?><!DOCTYPE svg PUBLIC "-//W3C//DTD SVG 1.1//EN" "http://www.w3.org/Graphics/SVG/1.1/DTD/svg11.dtd"><svg width="100%" height="100%" viewBox="0 0 13 12" version="1.1" xmlns="http://www.w3.org/2000/svg" xmlns:xlink="http://www.w3.org/1999/xlink" xml:space="preserve" xmlns:serif="http://www.serif.com/" style="fill-rule:evenodd;clip-rule:evenodd;stroke-linejoin:round;stroke-miterlimit:1.41421;"><path d="M7.694,6.25l3.621,-3.586l0.738,-0.738c0.106,-0.106 0.106,-0.281 0,-0.422l-0.773,-0.774c-0.141,-0.105 -0.316,-0.105 -0.422,0l-4.324,4.36l-4.36,-4.36c-0.105,-0.105 -0.281,-0.105 -0.421,0l-0.774,0.774c-0.105,0.141 -0.105,0.316 0,0.422l4.359,4.324l-4.359,4.359c-0.105,0.106 -0.105,0.282 0,0.422l0.774,0.774c0.14,0.105 0.316,0.105 0.421,0l4.36,-4.36l3.586,3.621l0.738,0.739c0.106,0.105 0.281,0.105 0.422,0l0.773,-0.774c0.106,-0.14 0.106,-0.316 0,-0.422l-4.359,-4.359Z" style="fill:#fff;fill-rule:nonzero;"/></svg>