<?xml version="1.0" encoding="UTF-8" standalone="no"?><!DOCTYPE svg PUBLIC "-//W3C//DTD SVG 1.1//EN" "http://www.w3.org/Graphics/SVG/1.1/DTD/svg11.dtd"><svg width="100%" height="100%" viewBox="0 0 29 20" version="1.1" xmlns="http://www.w3.org/2000/svg" xmlns:xlink="http://www.w3.org/1999/xlink" xml:space="preserve" xmlns:serif="http://www.serif.com/" style="fill-rule:evenodd;clip-rule:evenodd;stroke-linejoin:round;stroke-miterlimit:1.41421;"><path d="M28.129,3.598c-0.305,-1.219 -1.27,-2.184 -2.438,-2.489c-2.183,-0.609 -10.816,-0.609 -10.816,-0.609c0,0 -8.684,0 -10.867,0.609c-1.168,0.305 -2.133,1.27 -2.438,2.489c-0.609,2.132 -0.609,6.703 -0.609,6.703c0,0 0,4.519 0.609,6.703c0.305,1.219 1.27,2.133 2.438,2.437c2.183,0.559 10.867,0.559 10.867,0.559c0,0 8.633,0 10.816,-0.559c1.168,-0.304 2.133,-1.218 2.438,-2.437c0.609,-2.184 0.609,-6.703 0.609,-6.703c0,0 0,-4.571 -0.609,-6.703Zm-16.098,10.816l0,-8.227l7.211,4.114l-7.211,4.113Z" style="fill:#fff;fill-rule:nonzero;"/></svg>