<?xml version="1.0" encoding="UTF-8" standalone="no"?><!DOCTYPE svg PUBLIC "-//W3C//DTD SVG 1.1//EN" "http://www.w3.org/Graphics/SVG/1.1/DTD/svg11.dtd"><svg width="100%" height="100%" viewBox="0 0 16 16" version="1.1" xmlns="http://www.w3.org/2000/svg" xmlns:xlink="http://www.w3.org/1999/xlink" xml:space="preserve" xmlns:serif="http://www.serif.com/" style="fill-rule:evenodd;clip-rule:evenodd;stroke-linejoin:round;stroke-miterlimit:1.41421;"><path d="M15.674,4.087c-0.176,-0.703 -0.733,-1.26 -1.406,-1.435c-1.26,-0.352 -6.241,-0.352 -6.241,-0.352c0,0 -5.009,0 -6.269,0.352c-0.674,0.175 -1.231,0.732 -1.406,1.435c-0.352,1.231 -0.352,3.867 -0.352,3.867c0,0 0,2.608 0.352,3.868c0.175,0.703 0.732,1.23 1.406,1.406c1.26,0.322 6.269,0.322 6.269,0.322c0,0 4.981,0 6.241,-0.322c0.673,-0.176 1.23,-0.703 1.406,-1.406c0.351,-1.26 0.351,-3.868 0.351,-3.868c0,0 0,-2.636 -0.351,-3.867Zm-9.287,6.24l0,-4.746l4.16,2.373l-4.16,2.373Z" style="fill:#66747e;fill-rule:nonzero;"/></svg>