<?xml version="1.0" encoding="UTF-8" standalone="no"?><!DOCTYPE svg PUBLIC "-//W3C//DTD SVG 1.1//EN" "http://www.w3.org/Graphics/SVG/1.1/DTD/svg11.dtd"><svg width="100%" height="100%" viewBox="0 0 13 12" version="1.1" xmlns="http://www.w3.org/2000/svg" xmlns:xlink="http://www.w3.org/1999/xlink" xml:space="preserve" xmlns:serif="http://www.serif.com/" style="fill-rule:evenodd;clip-rule:evenodd;stroke-linejoin:round;stroke-miterlimit:1.41421;"><path d="M12.652,2.638c0.087,0 0.174,-0.029 0.232,-0.087c0.058,-0.059 0.116,-0.147 0.116,-0.264l0,-0.936c0,-0.088 -0.058,-0.175 -0.116,-0.234c-0.058,-0.058 -0.145,-0.117 -0.232,-0.117l-12.304,0c-0.116,0 -0.203,0.059 -0.261,0.117c-0.058,0.059 -0.087,0.146 -0.087,0.234l0,0.936c0,0.117 0.029,0.205 0.087,0.264c0.058,0.058 0.145,0.087 0.261,0.087l12.304,0Zm0,4.681c0.087,0 0.174,-0.029 0.232,-0.088c0.058,-0.058 0.116,-0.146 0.116,-0.263l0,-0.936c0,-0.088 -0.058,-0.176 -0.116,-0.234c-0.058,-0.059 -0.145,-0.117 -0.232,-0.117l-12.304,0c-0.116,0 -0.203,0.058 -0.261,0.117c-0.058,0.058 -0.087,0.146 -0.087,0.234l0,0.936c0,0.117 0.029,0.205 0.087,0.263c0.058,0.059 0.145,0.088 0.261,0.088l12.304,0Zm0,4.681c0.087,0 0.174,-0.029 0.232,-0.088c0.058,-0.058 0.116,-0.146 0.116,-0.263l0,-0.936c0,-0.088 -0.058,-0.176 -0.116,-0.234c-0.058,-0.059 -0.145,-0.117 -0.232,-0.117l-12.304,0c-0.116,0 -0.203,0.058 -0.261,0.117c-0.058,0.058 -0.087,0.146 -0.087,0.234l0,0.936c0,0.117 0.029,0.205 0.087,0.263c0.058,0.059 0.145,0.088 0.261,0.088l12.304,0Z" style="fill:#111;fill-rule:nonzero;"/></svg>