<?xml version="1.0" encoding="UTF-8" standalone="no"?><!DOCTYPE svg PUBLIC "-//W3C//DTD SVG 1.1//EN" "http://www.w3.org/Graphics/SVG/1.1/DTD/svg11.dtd"><svg width="100%" height="100%" viewBox="0 0 15 15" version="1.1" xmlns="http://www.w3.org/2000/svg" xmlns:xlink="http://www.w3.org/1999/xlink" xml:space="preserve" xmlns:serif="http://www.serif.com/" style="fill-rule:evenodd;clip-rule:evenodd;stroke-linejoin:round;stroke-miterlimit:1.41421;"><path d="M8.878,7.212l4.178,-4.138l0.851,-0.852c0.123,-0.122 0.123,-0.324 0,-0.487l-0.892,-0.893c-0.162,-0.121 -0.364,-0.121 -0.487,0l-4.989,5.031l-5.031,-5.031c-0.121,-0.121 -0.324,-0.121 -0.485,0l-0.893,0.893c-0.122,0.163 -0.122,0.365 0,0.487l5.029,4.99l-5.029,5.029c-0.122,0.122 -0.122,0.326 0,0.487l0.893,0.893c0.161,0.121 0.364,0.121 0.485,0l5.031,-5.031l4.138,4.178l0.851,0.853c0.123,0.121 0.325,0.121 0.487,0l0.892,-0.893c0.123,-0.161 0.123,-0.365 0,-0.487l-5.029,-5.029Z" style="fill:#66747e;fill-rule:nonzero;"/></svg>