<?xml version="1.0" encoding="UTF-8" standalone="no"?><!DOCTYPE svg PUBLIC "-//W3C//DTD SVG 1.1//EN" "http://www.w3.org/Graphics/SVG/1.1/DTD/svg11.dtd"><svg width="100%" height="100%" viewBox="0 0 16 16" version="1.1" xmlns="http://www.w3.org/2000/svg" xmlns:xlink="http://www.w3.org/1999/xlink" xml:space="preserve" xmlns:serif="http://www.serif.com/" style="fill-rule:evenodd;clip-rule:evenodd;stroke-linejoin:round;stroke-miterlimit:1.41421;"><path d="M13.947,4.918c0.586,-0.44 1.114,-0.967 1.524,-1.582c-0.528,0.234 -1.143,0.41 -1.758,0.468c0.644,-0.381 1.113,-0.966 1.348,-1.699c-0.586,0.352 -1.26,0.615 -1.934,0.762c-0.586,-0.615 -1.377,-0.967 -2.256,-0.967c-1.699,0 -3.076,1.377 -3.076,3.076c0,0.235 0.029,0.469 0.088,0.703c-2.549,-0.146 -4.834,-1.377 -6.358,-3.222c-0.263,0.439 -0.41,0.966 -0.41,1.552c0,1.055 0.528,1.993 1.377,2.549c-0.498,-0.029 -0.996,-0.146 -1.406,-0.381l0,0.03c0,1.494 1.055,2.724 2.461,3.017c-0.234,0.059 -0.527,0.117 -0.791,0.117c-0.205,0 -0.381,-0.029 -0.586,-0.058c0.381,1.23 1.523,2.109 2.871,2.138c-1.055,0.821 -2.373,1.319 -3.809,1.319c-0.263,0 -0.498,-0.029 -0.732,-0.059c1.348,0.879 2.959,1.377 4.717,1.377c5.654,0 8.73,-4.658 8.73,-8.73c0,-0.147 0,-0.264 0,-0.41Z" style="fill:#66747e;fill-rule:nonzero;"/></svg>