<?xml version="1.0" encoding="UTF-8" standalone="no"?><!DOCTYPE svg PUBLIC "-//W3C//DTD SVG 1.1//EN" "http://www.w3.org/Graphics/SVG/1.1/DTD/svg11.dtd"><svg width="100%" height="100%" viewBox="0 0 16 16" version="1.1" xmlns="http://www.w3.org/2000/svg" xmlns:xlink="http://www.w3.org/1999/xlink" xml:space="preserve" xmlns:serif="http://www.serif.com/" style="fill-rule:evenodd;clip-rule:evenodd;stroke-linejoin:round;stroke-miterlimit:1.41421;"><path d="M15.383,14.24l-3.545,-3.545c-0.088,-0.058 -0.176,-0.117 -0.264,-0.117l-0.381,0c0.909,-1.055 1.494,-2.461 1.494,-3.984c0,-3.34 -2.753,-6.094 -6.093,-6.094c-3.369,0 -6.094,2.754 -6.094,6.094c0,3.369 2.725,6.094 6.094,6.094c1.523,0 2.9,-0.557 3.984,-1.465l0,0.381c0,0.087 0.029,0.175 0.088,0.263l3.545,3.545c0.146,0.147 0.381,0.147 0.498,0l0.674,-0.674c0.146,-0.117 0.146,-0.351 0,-0.498Zm-8.789,-2.959c-2.608,0 -4.688,-2.08 -4.688,-4.687c0,-2.578 2.08,-4.688 4.688,-4.688c2.578,0 4.687,2.11 4.687,4.688c0,2.607 -2.109,4.687 -4.687,4.687Z" style="fill:#001828;fill-rule:nonzero;"/></svg>