<?xml version="1.0" encoding="UTF-8" standalone="no"?><!DOCTYPE svg PUBLIC "-//W3C//DTD SVG 1.1//EN" "http://www.w3.org/Graphics/SVG/1.1/DTD/svg11.dtd"><svg width="100%" height="100%" viewBox="0 0 15 13" version="1.1" xmlns="http://www.w3.org/2000/svg" xmlns:xlink="http://www.w3.org/1999/xlink" xml:space="preserve" xmlns:serif="http://www.serif.com/" style="fill-rule:evenodd;clip-rule:evenodd;stroke-linejoin:round;stroke-miterlimit:1.41421;"><path d="M13.462,3.328c0.586,-0.439 1.113,-0.967 1.523,-1.582c-0.527,0.234 -1.142,0.41 -1.758,0.469c0.645,-0.381 1.114,-0.967 1.348,-1.699c-0.586,0.351 -1.26,0.615 -1.933,0.761c-0.586,-0.615 -1.377,-0.966 -2.256,-0.966c-1.699,0 -3.076,1.376 -3.076,3.076c0,0.234 0.029,0.468 0.087,0.703c-2.548,-0.147 -4.834,-1.377 -6.357,-3.223c-0.264,0.44 -0.41,0.967 -0.41,1.553c0,1.055 0.527,1.992 1.377,2.549c-0.498,-0.03 -0.996,-0.147 -1.406,-0.381l0,0.029c0,1.494 1.054,2.725 2.461,3.018c-0.235,0.058 -0.528,0.117 -0.791,0.117c-0.206,0 -0.381,-0.029 -0.586,-0.059c0.38,1.231 1.523,2.11 2.871,2.139c-1.055,0.82 -2.373,1.318 -3.809,1.318c-0.264,0 -0.498,-0.029 -0.732,-0.058c1.347,0.879 2.959,1.377 4.716,1.377c5.655,0 8.731,-4.658 8.731,-8.731c0,-0.146 0,-0.263 0,-0.41Z" style="fill:#001828;fill-rule:nonzero;"/></svg>