<?xml version="1.0" encoding="UTF-8" standalone="no"?><!DOCTYPE svg PUBLIC "-//W3C//DTD SVG 1.1//EN" "http://www.w3.org/Graphics/SVG/1.1/DTD/svg11.dtd"><svg width="100%" height="100%" viewBox="0 0 36 9" version="1.1" xmlns="http://www.w3.org/2000/svg" xmlns:xlink="http://www.w3.org/1999/xlink" xml:space="preserve" xmlns:serif="http://www.serif.com/" style="fill-rule:evenodd;clip-rule:evenodd;stroke-linejoin:round;stroke-miterlimit:1.41421;"><path d="M30.934,0.132l-0.282,0.246c-0.14,0.176 -0.14,0.422 0,0.598l2.953,2.918l-33.183,0c-0.246,0 -0.422,0.21 -0.422,0.421l0,0.352c0,0.246 0.176,0.422 0.422,0.422l33.183,0l-2.953,2.953c-0.14,0.176 -0.14,0.422 0,0.598l0.282,0.246c0.14,0.176 0.421,0.176 0.597,0l4.078,-4.078c0.176,-0.176 0.176,-0.422 0,-0.598l-4.078,-4.078c-0.176,-0.176 -0.457,-0.176 -0.597,0Z" style="fill:#f26111;fill-rule:nonzero;"/></svg>